<svg width="562" height="888" viewBox="0 0 562 888" fill="none" xmlns="http://www.w3.org/2000/svg">
<path d="M284 888L63.3555 396.988C33.6212 330.819 82.0263 256 154.569 256H408.377C480.549 256 528.955 330.121 499.939 396.203L284 888Z" fill="#73DD62"/>
<path d="M536.9 249.01L465.14 322.76C361.76 429 193.47 436.18 81.42 339.13L27.59 292.5C26.71 286.42 26.06 280.27 25.63 274.06C25.21 268.1 25 262.07 25 256C25 209.78 37.25 166.43 58.68 129C102.8 51.93 185.84 0 281 0C376.16 0 459.2 51.93 503.32 129C516.3 151.67 525.91 176.52 531.47 202.86C534.63 217.81 536.48 233.23 536.9 249.01Z" fill="#92EAFF"/>
<path d="M536.9 249.01L465.14 322.76C361.76 429 193.47 436.18 81.42 339.13L27.59 292.5C25.88 280.58 25 268.39 25 256C25 209.78 37.25 166.43 58.68 129C102.8 206.07 185.84 258 281 258C376.16 258 459.2 206.07 503.32 129C523.67 164.54 535.74 205.41 536.9 249.01Z" fill="#63DBFA"/>
<path d="M537 256C537 278.38 534.13 300.09 528.73 320.78C525.13 334.58 520.41 347.93 514.65 360.72C360.52 392.63 201.48 392.63 47.3501 360.72C41.5901 347.93 36.8701 334.58 33.2701 320.78C30.8701 311.55 28.9601 302.11 27.5901 292.5C34.5901 290.27 42.2101 292.12 49.4701 293.47C56.9401 294.87 65.3601 295.5 71.4701 290.98C80.8001 284.08 81.8701 267.32 93.2601 265.14C100.26 263.8 106.61 269.3 111.11 274.82C115.61 280.34 120.17 286.75 127.13 288.28C140.76 291.29 153.83 273.68 166.7 279.07C177.61 283.65 178.1 301.21 189.12 305.5C202.44 310.67 214.86 291.37 228.93 293.83C247.98 297.17 251.55 342.23 276.66 329.93C278.22 329.16 279.65 328.23 281 327.16C285.25 323.84 288.64 319.32 292.26 315.23C297.03 309.84 303.19 304.7 310.38 304.79C320.86 304.93 329.27 316.06 339.67 314.8C354.87 312.96 357.31 288 372.23 284.61C387.65 281.11 400.37 304.05 415.53 299.58C424 297.09 427.66 287.4 430.34 278.99C433.03 270.58 437.29 260.95 445.95 259.24C460.48 256.39 469.49 278.14 484.28 278.79C495.43 279.28 502.79 267.98 511.06 260.48C518.17 254.04 527.37 250.12 536.9 249.01C536.97 251.33 537 253.66 537 256Z" fill="#50BA4A"/>
<path d="M537 256C537 278.38 534.13 300.09 528.73 320.78C525.13 334.58 520.41 347.93 514.65 360.72C437.58 376.68 359.29 384.65 281 384.65V327.16C285.25 323.84 288.64 319.32 292.26 315.23C297.03 309.84 303.19 304.7 310.38 304.79C320.86 304.93 329.27 316.06 339.67 314.8C354.87 312.96 357.31 288 372.23 284.61C387.65 281.11 400.37 304.05 415.53 299.58C424 297.09 427.66 287.4 430.34 278.99C433.03 270.58 437.29 260.95 445.95 259.24C460.48 256.39 469.49 278.14 484.28 278.79C495.43 279.28 502.79 267.98 511.06 260.48C518.17 254.04 527.37 250.12 536.9 249.01C536.97 251.33 537 253.66 537 256Z" fill="#00A23E"/>
<path d="M109.989 360.713H102.397C100.579 360.713 99.1301 359.193 99.2171 357.377L100.058 339.846L101.668 306.441H110.717L112.326 339.846L113.168 357.377C113.256 359.193 111.807 360.713 109.989 360.713Z" fill="#EC771B"/>
<path d="M110.717 306.438L113.168 357.377C113.255 359.193 111.806 360.713 109.988 360.713H106.193V306.437H110.717V306.438Z" fill="#C55732"/>
<path d="M112.327 339.847H100.06L101.669 306.442H110.718L112.327 339.847Z" fill="#C55732"/>
<path d="M112.327 339.847H106.194V306.442H110.718L112.327 339.847Z" fill="#B15848"/>
<path d="M113.092 330.373H99.296C83.327 330.373 73.115 313.095 81.099 299.262L81.266 298.956C90.931 282.56 98.098 265.468 103.446 248.097C103.864 246.732 105.024 246.064 106.194 246.064C107.355 246.064 108.515 246.733 108.933 248.088C114.29 265.468 121.457 282.56 131.122 298.956L131.289 299.262C139.274 313.095 129.061 330.373 113.092 330.373Z" fill="#43AF3E"/>
<path d="M113.092 330.373H102.805C94.9599 330.373 89.9369 313.095 93.8639 299.262C93.8919 299.16 93.9199 299.058 93.9479 298.956C98.6919 282.56 102.22 265.468 104.848 248.097C105.052 246.732 105.619 246.064 106.194 246.064C107.355 246.064 108.515 246.733 108.933 248.088C114.29 265.468 121.457 282.56 131.122 298.956L131.289 299.262C139.274 313.095 129.061 330.373 113.092 330.373Z" fill="#00A23E"/>
<path d="M113.093 330.37H106.194V246.06C107.353 246.06 108.512 246.735 108.929 248.086C114.286 265.464 121.456 282.56 131.124 298.958C131.18 299.059 131.237 299.161 131.293 299.262C139.272 313.094 129.063 330.37 113.093 330.37Z" fill="#008839"/>
<path d="M131.199 310.205C128.54 323.699 117.292 330.424 106.074 330.363H106.059C94.918 330.317 83.808 323.593 81.164 310.205C79.911 303.893 80.812 297.046 84.45 290.72L84.679 290.307C93.1 276.002 100.16 261.331 106.059 246.4C106.105 246.278 106.151 246.171 106.197 246.064C112.111 261.102 119.202 275.896 127.7 290.307L127.929 290.72C131.566 297.046 132.452 303.893 131.199 310.205Z" fill="#43AF3E"/>
<path d="M118.036 310.207C116.775 323.702 111.44 330.425 106.125 330.37C100.846 330.314 95.5868 323.591 94.3358 310.207C93.7428 303.887 94.1648 297.039 95.8898 290.719L95.9988 290.302C99.9898 276 103.329 261.324 106.125 246.396C106.145 246.285 106.168 246.173 106.188 246.062C108.994 261.101 112.353 275.896 116.374 290.302L116.483 290.719C118.208 297.039 118.629 303.887 118.036 310.207Z" fill="#00A23E"/>
<path d="M131.199 310.205C128.54 323.699 117.292 330.424 106.074 330.363L106.196 246.064C112.11 261.102 119.201 275.896 127.699 290.307L127.928 290.72C131.566 297.046 132.452 303.893 131.199 310.205Z" fill="#008839"/>
<path d="M433.813 360.713H426.221C424.403 360.713 422.954 359.193 423.041 357.377L423.882 339.846L425.491 306.441H434.54L436.149 339.846L436.99 357.377C437.08 359.193 435.631 360.713 433.813 360.713Z" fill="#EC771B"/>
<path d="M434.54 306.438L436.992 357.377C437.079 359.193 435.631 360.713 433.812 360.713H430.017V306.437H434.54V306.438Z" fill="#C55732"/>
<path d="M436.151 339.847H423.883L425.492 306.442H434.541L436.151 339.847Z" fill="#C55732"/>
<path d="M436.151 339.847H430.017V306.442H434.541L436.151 339.847Z" fill="#B15848"/>
<path d="M436.916 330.373H423.12C407.151 330.373 396.939 313.095 404.923 299.262L405.09 298.956C414.755 282.56 421.922 265.468 427.27 248.097C427.688 246.732 428.848 246.064 430.018 246.064C431.179 246.064 432.339 246.733 432.757 248.088C438.114 265.468 445.281 282.56 454.946 298.956L455.113 299.262C463.097 313.095 452.884 330.373 436.916 330.373Z" fill="#43AF3E"/>
<path d="M436.916 330.373H426.629C418.784 330.373 413.761 313.095 417.688 299.262C417.716 299.16 417.744 299.058 417.772 298.956C422.516 282.56 426.044 265.468 428.672 248.097C428.876 246.732 429.443 246.064 430.018 246.064C431.179 246.064 432.339 246.733 432.757 248.088C438.114 265.468 445.281 282.56 454.946 298.956L455.113 299.262C463.097 313.095 452.884 330.373 436.916 330.373Z" fill="#00A23E"/>
<path d="M436.916 330.37H430.017V246.06C431.176 246.06 432.335 246.735 432.752 248.086C438.109 265.464 445.279 282.56 454.947 298.958C455.003 299.059 455.06 299.161 455.116 299.262C463.095 313.094 452.887 330.37 436.916 330.37Z" fill="#008839"/>
<path d="M493.738 360.713H486.146C484.328 360.713 482.879 359.193 482.966 357.377L483.807 339.846L485.416 306.441H494.465L496.075 339.846L496.916 357.377C497.004 359.193 495.556 360.713 493.738 360.713Z" fill="#EC771B"/>
<path d="M494.465 306.438L496.917 357.377C497.004 359.193 495.556 360.713 493.737 360.713H489.942V306.437H494.465V306.438Z" fill="#C55732"/>
<path d="M496.076 339.847H483.808L485.417 306.442H494.466L496.076 339.847Z" fill="#C55732"/>
<path d="M496.076 339.847H489.942V306.442H494.466L496.076 339.847Z" fill="#B15848"/>
<path d="M496.84 330.373H483.044C467.075 330.373 456.863 313.095 464.847 299.262L465.014 298.956C474.679 282.56 481.846 265.468 487.194 248.097C487.612 246.732 488.772 246.064 489.942 246.064C491.103 246.064 492.263 246.733 492.681 248.088C498.038 265.468 505.205 282.56 514.87 298.956L515.037 299.262C523.022 313.095 512.809 330.373 496.84 330.373Z" fill="#43AF3E"/>
<path d="M496.84 330.373H486.553C478.708 330.373 473.685 313.095 477.612 299.262C477.64 299.16 477.668 299.058 477.696 298.956C482.44 282.56 485.968 265.468 488.596 248.097C488.8 246.732 489.367 246.064 489.942 246.064C491.103 246.064 492.263 246.733 492.681 248.088C498.038 265.468 505.205 282.56 514.87 298.956L515.037 299.262C523.022 313.095 512.809 330.373 496.84 330.373Z" fill="#00A23E"/>
<path d="M496.841 330.37H489.942V246.06C491.101 246.06 492.26 246.735 492.677 248.086C498.034 265.464 505.204 282.56 514.872 298.958C514.928 299.059 514.984 299.161 515.041 299.262C523.02 313.094 512.812 330.37 496.841 330.37Z" fill="#008839"/>
<path d="M514.65 360.72C510.72 369.5 506.29 378.03 501.42 386.25C481.73 419.52 454.71 447.95 422.59 469.3C331.34 496.82 233.19 490.13 146.51 450.49L87.3401 423.42C78.0001 412.64 69.5701 401.08 62.1301 388.83H62.1401V382.28C62.1401 377.61 58.3501 373.82 53.6801 373.82H53.6701C51.4401 369.53 49.3301 365.16 47.3501 360.72H514.65Z" fill="#B6E337"/>
<path d="M514.65 360.72C510.72 369.5 506.29 378.03 501.42 386.25C481.73 419.52 454.7 447.95 422.59 469.3H422.58C376.36 483.24 328.37 488.4 281 484.94V360.72H514.65Z" fill="#6CDC2D"/>
<path d="M494.203 378.462C491.21 381.194 487.287 382.686 483.233 382.686H467.848C463.838 382.686 459.946 381.237 456.97 378.541C451.385 373.484 447.872 366.175 447.872 358.042C447.872 342.766 460.26 330.373 475.541 330.373C475.977 330.373 476.414 330.382 476.854 330.404C491.144 331.063 502.694 342.752 503.192 357.056C503.489 365.538 499.963 373.2 494.203 378.462Z" fill="#FFA87A"/>
<path d="M494.203 378.462C491.21 381.194 487.287 382.686 483.233 382.686H475.54V330.373C475.976 330.373 476.413 330.382 476.853 330.404C491.143 331.063 502.693 342.752 503.191 357.056C503.489 365.538 499.963 373.2 494.203 378.462Z" fill="#F99568"/>
<path d="M492.696 360.815C494.243 351.277 487.764 342.292 478.226 340.746C468.689 339.2 459.704 345.678 458.157 355.216C456.611 364.754 463.09 373.739 472.627 375.285C482.165 376.831 491.15 370.353 492.696 360.815Z" fill="#FFC0A4"/>
<path d="M493.038 358.041C493.038 367.706 485.206 375.538 475.541 375.538V340.543C485.206 340.544 493.038 348.376 493.038 358.041Z" fill="#FFA87A"/>
<path d="M483.526 358.041C483.526 362.452 479.952 366.026 475.541 366.026C471.134 366.026 467.56 362.452 467.56 358.041C467.56 353.634 471.134 350.056 475.541 350.056C479.952 350.056 483.526 353.634 483.526 358.041Z" fill="#FFA87A"/>
<path d="M483.526 358.041C483.526 362.452 479.952 366.026 475.541 366.026V350.056C479.952 350.056 483.526 353.634 483.526 358.041Z" fill="#F99568"/>
<path d="M363.226 251.596V360.717H198.754V251.596L208.147 235.203L220.162 214.239L226.353 203.42L244.192 193.256L280.99 172.292L317.788 193.256L335.627 203.42L341.818 214.239L353.834 235.203L363.226 251.596Z" fill="#FE3345"/>
<path d="M363.241 251.595L335.631 203.424L280.998 172.289V360.714H363.241V251.595Z" fill="#DE1263"/>
<path d="M341.818 214.239H220.162L226.353 203.42L244.192 193.256H317.788L335.627 203.42L341.818 214.239Z" fill="#DE1263"/>
<path d="M363.226 251.596V256.167H198.754V251.596L208.147 235.203H353.834L363.226 251.596Z" fill="#DE1263"/>
<path d="M198.754 277.131H363.226V298.114H198.754V277.131Z" fill="#DE1263"/>
<path d="M198.754 319.078H363.226V340.042H198.754V319.078Z" fill="#DE1263"/>
<path d="M341.818 214.239H280.99V193.256H317.788L335.627 203.42L341.818 214.239Z" fill="#CE0557"/>
<path d="M363.226 251.596V256.167H280.99V235.203H353.834L363.226 251.596Z" fill="#CE0557"/>
<path d="M280.99 277.131H363.226V298.114H280.99V277.131Z" fill="#CE0557"/>
<path d="M280.99 319.078H363.226V340.042H280.99V319.078Z" fill="#CE0557"/>
<path d="M306.266 312.447V360.72H255.737V312.447C255.737 305.427 261.426 299.738 268.427 299.738H293.576C300.577 299.738 306.266 305.427 306.266 312.447Z" fill="#384C81"/>
<path d="M306.266 312.447V360.72H281.001V299.738H293.576C300.577 299.738 306.266 305.427 306.266 312.447Z" fill="#1A3863"/>
<path d="M255.737 211.754H306.266V246.758H255.737V211.754Z" fill="#384C81"/>
<path d="M281.002 211.754H306.266V246.758H281.002V211.754Z" fill="#1A3863"/>
<path d="M249.909 206.77H261.565V251.743H249.909V206.77Z" fill="white"/>
<path d="M300.438 206.77H312.094V251.743H300.438V206.77Z" fill="#DFF7FD"/>
<path d="M385.46 251.6H363.23L357.67 241.9L335.65 203.42L281.01 172.29L280.99 172.31L226.37 203.42L204.33 241.9L198.77 251.6H176.54L187.59 232.31L209.63 193.83L212.25 189.26L216.83 186.66L271.46 155.53L280.99 150.11L281.01 150.09L290.56 155.53L345.19 186.66L349.76 189.26L352.39 193.83L374.41 232.31L385.46 251.6Z" fill="#384C81"/>
<path d="M183.888 340.044H255.737V360.713H183.888V340.044Z" fill="#A44E3E"/>
<path d="M306.266 340.044H378.115V360.713H306.266V340.044Z" fill="#913D31"/>
<path d="M247.228 301.587V320.442H209.14V301.587C209.14 300.565 209.968 299.737 210.99 299.737H245.378C246.4 299.738 247.228 300.566 247.228 301.587Z" fill="#384C81"/>
<path d="M352.859 301.587V320.442H314.771V301.587C314.771 300.565 315.599 299.737 316.621 299.737H351.009C352.031 299.738 352.859 300.566 352.859 301.587Z" fill="#384C81"/>
<path d="M419.796 426.979C414.615 431.707 407.826 434.29 400.81 434.29H374.181C367.241 434.29 360.504 431.783 355.354 427.115C345.687 418.362 339.608 405.712 339.608 391.635C339.608 365.195 361.049 343.747 387.496 343.747C388.251 343.747 389.006 343.762 389.769 343.8C414.502 344.94 434.493 365.173 435.354 389.928C435.866 404.609 429.764 417.871 419.796 426.979Z" fill="#FFA87A"/>
<path d="M419.796 426.979C414.615 431.707 407.826 434.29 400.81 434.29H387.496V343.748C388.251 343.748 389.006 343.763 389.769 343.801C414.502 344.941 434.493 365.174 435.354 389.929C435.866 404.609 429.764 417.871 419.796 426.979Z" fill="#F99568"/>
<path d="M417.285 396.44C419.962 379.933 408.749 364.381 392.241 361.705C375.733 359.029 360.181 370.242 357.505 386.75C354.829 403.258 366.042 418.809 382.55 421.485C399.058 424.161 414.609 412.948 417.285 396.44Z" fill="#FFC0A4"/>
<path d="M417.779 391.635C417.779 408.363 404.223 421.919 387.495 421.919V361.351C404.223 361.351 417.779 374.907 417.779 391.635Z" fill="#FFA87A"/>
<path d="M401.315 391.635C401.315 399.27 395.13 405.455 387.495 405.455C379.867 405.455 373.682 399.27 373.682 391.635C373.682 384.007 379.867 377.815 387.495 377.815C395.13 377.814 401.315 384.007 401.315 391.635Z" fill="#FFA87A"/>
<path d="M401.315 391.635C401.315 399.27 395.13 405.455 387.495 405.455V377.814C395.13 377.814 401.315 384.007 401.315 391.635Z" fill="#F99568"/>
<path d="M166.639 381.799C162.015 386.019 155.955 388.324 149.692 388.324H125.924C119.729 388.324 113.716 386.086 109.119 381.92C100.491 374.107 95.0642 362.816 95.0642 350.251C95.0642 326.651 114.201 307.507 137.808 307.507C138.482 307.507 139.156 307.52 139.837 307.554C161.913 308.572 179.757 326.631 180.525 348.727C180.983 361.832 175.537 373.669 166.639 381.799Z" fill="#FFA87A"/>
<path d="M166.639 381.799C162.015 386.019 155.955 388.324 149.692 388.324H137.808V307.507C138.482 307.507 139.156 307.52 139.837 307.554C161.913 308.572 179.757 326.631 180.525 348.727C180.983 361.832 175.537 373.669 166.639 381.799Z" fill="#F99568"/>
<path d="M164.481 353.627C166.318 338.818 155.801 325.324 140.991 323.488C126.182 321.651 112.688 332.168 110.852 346.978C109.016 361.787 119.532 375.281 134.342 377.117C149.151 378.953 162.645 368.437 164.481 353.627Z" fill="#FFC0A4"/>
<path d="M164.839 350.251C164.839 365.182 152.739 377.282 137.808 377.282V323.22C152.739 323.22 164.839 335.32 164.839 350.251Z" fill="#FFA87A"/>
<path d="M150.144 350.251C150.144 357.066 144.623 362.587 137.808 362.587C131 362.587 125.479 357.066 125.479 350.251C125.479 343.443 131 337.915 137.808 337.915C144.623 337.916 150.144 343.443 150.144 350.251Z" fill="#FFA87A"/>
<path d="M150.144 350.251C150.144 357.066 144.623 362.587 137.808 362.587V337.915C144.623 337.916 150.144 343.443 150.144 350.251Z" fill="#F99568"/>
<path d="M161.27 373.79V456.87C158.43 455.72 155.59 454.52 152.77 453.28C150.68 452.37 148.59 451.44 146.51 450.49L144.27 449.47V373.79H161.27Z" fill="#A44E3E"/>
<path d="M161.27 373.79V456.87C158.43 455.72 155.59 454.52 152.77 453.28V373.79H161.27Z" fill="#913D31"/>
<path d="M118.52 371.63V437.68L110.02 433.8L101.52 429.91V371.63H118.52Z" fill="#A44E3E"/>
<path d="M118.52 371.63V437.68L110.02 433.8V371.63H118.52Z" fill="#913D31"/>
<path d="M204.01 382.37V471.52C201.17 470.74 198.34 469.91 195.51 469.05C192.67 468.19 189.84 467.29 187.01 466.35V382.37H204.01Z" fill="#A44E3E"/>
<path d="M204.01 382.37V471.52C201.17 470.74 198.34 469.91 195.51 469.05V382.37H204.01Z" fill="#913D31"/>
<path d="M246.76 395.16V480.93C243.92 480.48 241.09 479.99 238.26 479.46C235.42 478.94 232.58 478.38 229.76 477.79V395.16H246.76Z" fill="#A44E3E"/>
<path d="M246.76 395.16V480.93C243.92 480.48 241.09 479.99 238.26 479.46V395.16H246.76Z" fill="#913D31"/>
<path d="M483.06 413.17C480.25 416.79 477.34 420.32 474.33 423.78L474.32 423.79C471.22 427.37 468.03 430.85 464.73 434.25C444.98 437.61 424.97 439.29 404.95 439.3C382.36 439.3 359.78 437.15 337.53 432.83C320.88 429.61 303.42 425.03 281 418.02C280.67 417.91 280.33 417.81 279.99 417.7C270.62 414.75 261.15 411.63 251.99 408.61C230.99 401.68 209.26 394.51 187.61 389.13C138.43 376.94 96.3402 376.85 62.1402 388.83C61.7902 388.29 61.4702 387.74 61.1402 387.2C59.9902 385.28 58.8602 383.34 57.7702 381.38C56.3602 378.89 55.0002 376.37 53.6802 373.82C91.5902 359.7 137.89 359.29 191.7 372.63C213.98 378.16 236.01 385.43 257.32 392.46C265.08 395.02 273.07 397.66 281 400.18C282.37 400.62 283.73 401.05 285.09 401.48C307.35 408.47 324.52 412.99 340.76 416.14C387.83 425.27 436.5 424.21 483.06 413.17Z" fill="#B15848"/>
<path d="M289.5 409.1V485.47C286.66 485.34 283.83 485.16 281 484.94C278.17 484.75 275.33 484.51 272.5 484.24V409.1H289.5Z" fill="#913D31"/>
<path d="M289.5 409.1V485.47C286.66 485.34 283.83 485.16 281 484.94V409.1H289.5Z" fill="#77281F"/>
<path d="M332.24 421.15V485.33C329.41 485.49 326.57 485.63 323.74 485.73C320.91 485.83 318.07 485.91 315.24 485.95V421.15H332.24Z" fill="#913D31"/>
<path d="M332.24 421.15V485.33C329.41 485.49 326.57 485.63 323.74 485.73V421.15H332.24Z" fill="#77281F"/>
<path d="M374.99 428.64V480.47C372.16 480.95 369.33 481.4 366.49 481.82C363.66 482.23 360.83 482.62 357.99 482.97V428.64H374.99Z" fill="#913D31"/>
<path d="M374.99 428.64V480.47C372.16 480.95 369.33 481.4 366.49 481.82V428.64H374.99Z" fill="#77281F"/>
<path d="M417.73 430.74V470.73C414.9 471.54 412.07 472.32 409.23 473.07C406.4 473.82 403.57 474.53 400.73 475.2V430.74H417.73Z" fill="#913D31"/>
<path d="M417.73 430.74V470.73C414.9 471.54 412.07 472.32 409.23 473.07V430.74H417.73Z" fill="#77281F"/>
<path d="M474.32 423.79C471.22 427.37 468.03 430.85 464.73 434.25C444.98 437.61 424.97 439.29 404.95 439.3C382.36 439.3 359.78 437.15 337.53 432.83C320.63 429.56 302.89 424.89 279.99 417.7C270.62 414.75 261.15 411.63 251.99 408.61C230.99 401.68 209.26 394.51 187.61 389.13C138.43 376.94 96.34 376.85 62.14 388.83C61.79 388.29 61.47 387.74 61.14 387.2C59.99 385.28 58.86 383.34 57.77 381.38C99.09 366.42 146.41 370.15 189.66 380.88C221.1 388.69 251.64 399.87 282.54 409.59C301.19 415.45 319.97 420.77 339.14 424.48C383.66 433.12 429.88 432.82 474.32 423.79Z" fill="#A44E3E"/>
<path d="M483.06 413.17C480.25 416.79 477.34 420.32 474.33 423.78C471.23 427.36 468.03 430.85 464.73 434.25C444.98 437.61 424.97 439.29 404.95 439.3C382.36 439.3 359.78 437.15 337.53 432.83C320.88 429.61 303.42 425.03 281 418.02V400.18C282.37 400.62 283.73 401.05 285.09 401.48C307.35 408.47 324.52 412.99 340.76 416.14C387.83 425.27 436.5 424.21 483.06 413.17Z" fill="#A44E3E"/>
<path d="M474.33 423.78C471.23 427.36 468.03 430.85 464.73 434.25C444.98 437.61 424.97 439.29 404.95 439.3C382.36 439.3 359.78 437.15 337.53 432.83C320.88 429.61 303.42 425.03 281 418.02V409.1C281.51 409.27 282.03 409.43 282.54 409.59C301.19 415.45 319.97 420.77 339.14 424.48C383.66 433.12 429.89 432.81 474.33 423.78Z" fill="#913D31"/>
<path d="M422.59 469.3C382.24 496.14 333.84 511.84 281.79 512H281C206.1 512 138.71 479.83 91.8901 428.55C90.3501 426.86 88.8301 425.15 87.3401 423.42C122.37 413.42 161.37 416.98 197.26 425.88C225.61 432.92 253.14 443 281 451.76C297.81 457.04 314.74 461.84 332.03 465.19C361.8 470.97 392.42 472.31 422.59 469.3Z" fill="#43AF3E"/>
<path d="M422.59 469.3C382.24 496.14 333.84 511.84 281.79 512H281V451.76C297.81 457.04 314.74 461.84 332.03 465.19C361.8 470.97 392.42 472.31 422.59 469.3Z" fill="#00A23E"/>
<path d="M206.475 453.196C209.706 453.196 212.324 450.577 212.324 447.347C212.324 444.117 209.706 441.498 206.475 441.498C203.245 441.498 200.626 444.117 200.626 447.347C200.626 450.577 203.245 453.196 206.475 453.196Z" fill="#00A23E"/>
<path d="M151.323 444.386C154.553 444.386 157.172 441.767 157.172 438.537C157.172 435.307 154.553 432.688 151.323 432.688C148.093 432.688 145.474 435.307 145.474 438.537C145.474 441.767 148.093 444.386 151.323 444.386Z" fill="#00A23E"/>
<path d="M270.373 469.754C273.603 469.754 276.222 467.135 276.222 463.905C276.222 460.675 273.603 458.056 270.373 458.056C267.143 458.056 264.524 460.675 264.524 463.905C264.524 467.135 267.143 469.754 270.373 469.754Z" fill="#00A23E"/>
<path d="M317.622 476.723C317.622 479.953 315.003 482.572 311.773 482.572C308.543 482.572 305.924 479.954 305.924 476.723C305.924 473.493 308.542 470.874 311.773 470.874C315.003 470.874 317.622 473.493 317.622 476.723Z" fill="#008839"/>
<path d="M186.4 469.754C186.4 472.984 183.782 475.603 180.551 475.603C177.321 475.603 174.702 472.985 174.702 469.754C174.702 466.524 177.32 463.905 180.551 463.905C183.782 463.905 186.4 466.524 186.4 469.754Z" fill="#00A23E"/>
<path d="M245.108 488.421C248.338 488.421 250.957 485.802 250.957 482.572C250.957 479.342 248.338 476.723 245.108 476.723C241.878 476.723 239.259 479.342 239.259 482.572C239.259 485.802 241.878 488.421 245.108 488.421Z" fill="#00A23E"/>
<path d="M357.99 494.269C361.22 494.269 363.839 491.65 363.839 488.42C363.839 485.19 361.22 482.571 357.99 482.571C354.76 482.571 352.141 485.19 352.141 488.42C352.141 491.65 354.76 494.269 357.99 494.269Z" fill="#008839"/>
<path d="M185.394 141.749C185.394 141.686 185.399 141.625 185.399 141.562C185.399 130.115 176.119 120.835 164.672 120.835C161.953 120.835 159.358 121.364 156.979 122.316C152.383 114.082 143.588 108.511 133.489 108.511C120.373 108.511 109.457 117.904 107.084 130.328C106.377 130.227 105.654 130.171 104.919 130.171C97.788 130.171 91.814 135.107 90.217 141.748H185.394V141.749Z" fill="white"/>
<path d="M165.171 141.749C165.171 141.713 165.174 141.678 165.174 141.642C165.174 135.06 159.838 129.724 153.256 129.724C151.692 129.724 150.2 130.028 148.832 130.576C146.189 125.841 141.132 122.638 135.325 122.638C127.783 122.638 121.506 128.039 120.142 135.183C119.735 135.125 119.32 135.093 118.897 135.093C114.796 135.093 111.361 137.932 110.443 141.75H165.171V141.749Z" fill="#DFF7FD"/>
<path d="M336.431 68.581C336.431 68.503 336.437 68.427 336.437 68.349C336.437 54.145 324.923 42.631 310.719 42.631C307.345 42.631 304.125 43.288 301.173 44.469C295.47 34.252 284.558 27.339 272.026 27.339C255.752 27.339 242.207 38.994 239.263 54.41C238.385 54.284 237.489 54.216 236.577 54.216C227.729 54.216 220.316 60.341 218.334 68.581H336.431Z" fill="white"/>
<path d="M311.337 68.581C311.337 68.536 311.34 68.492 311.34 68.448C311.34 60.28 304.719 53.66 296.552 53.66C294.612 53.66 292.76 54.037 291.063 54.717C287.784 48.842 281.509 44.867 274.303 44.867C264.945 44.867 257.156 51.569 255.463 60.434C254.958 60.362 254.443 60.322 253.919 60.322C248.831 60.322 244.568 63.844 243.429 68.582H311.337V68.581Z" fill="#DFF7FD"/>
<path d="M342.858 153.454C342.857 153.376 342.852 153.3 342.852 153.222C342.852 139.018 354.367 127.504 368.57 127.504C371.944 127.504 375.164 128.16 378.116 129.342C383.819 119.125 394.731 112.212 407.263 112.212C423.537 112.212 437.083 123.867 440.026 139.283C440.904 139.157 441.8 139.089 442.712 139.089C451.56 139.089 458.974 145.214 460.955 153.454H342.858Z" fill="white"/>
<path d="M367.951 153.454C367.951 153.409 367.948 153.365 367.948 153.321C367.948 145.154 374.569 138.533 382.737 138.533C384.677 138.533 386.529 138.911 388.226 139.59C391.505 133.715 397.78 129.74 404.986 129.74C414.344 129.74 422.133 136.442 423.826 145.307C424.331 145.235 424.846 145.195 425.371 145.195C430.459 145.195 434.722 148.717 435.861 153.455H367.951V153.454Z" fill="#DFF7FD"/>
<path d="M385.46 251.6H363.23L357.67 241.9L335.65 203.42L281.01 172.29L281 172.3V150.1L281.01 150.09L290.56 155.53L345.19 186.66L349.76 189.26L352.39 193.83L374.41 232.31L385.46 251.6Z" fill="#1A3863"/>
</svg>
