<svg width="560" height="877" viewBox="0 0 560 877" fill="none" xmlns="http://www.w3.org/2000/svg">
<g clip-path="url(#clip0)">
<path d="M280 877L49.7513 370.375C19.6608 304.165 68.0641 229 140.79 229H414.907C487.328 229 535.734 303.59 506.235 369.732L280 877Z" fill="#73DD62"/>
<path d="M535 256C535 264.54 534.58 272.97 533.76 281.29C394.13 407.73 177.74 394.22 54.93 251.38L25.87 217.58C44.4 94.43 150.68 0 279 0C420.38 0 535 114.62 535 256Z" fill="#92EAFF"/>
<path d="M535 256C535 264.53 534.58 272.97 533.76 281.29C394.13 407.73 177.74 394.22 54.93 251.38L25.87 217.58C30.65 185.76 41.3 155.85 56.68 129C100.8 206.07 183.84 258 279 258C374.16 258 457.2 206.07 501.32 129C522.75 166.43 535 209.78 535 256Z" fill="#63DBFA"/>
<path d="M423.96 352.19C292.85 407.6 137.05 386.08 24.88 287.14C24.35 282.81 23.93 278.45 23.63 274.06C23.21 268.1 23 262.07 23 256C23 242.94 23.98 230.11 25.87 217.58C39.47 213.17 56.89 215.46 67.16 221.74C74.41 226.17 80.88 232.73 89.29 233.9C104.14 235.97 118.49 220.37 132.53 225.6C146.63 230.86 148.81 253.42 163.44 256.95C175.32 259.82 187.96 247.65 199.07 252.74C210.43 257.96 210.07 277.02 221.79 281.39C233.43 285.72 245.62 271.3 257.51 274.87C268.34 278.12 270.86 293.71 279 300.61C280.67 302.03 282.58 303.08 284.84 303.58C296.69 306.21 308.52 290.98 319.37 296.43C326.6 300.06 327.46 310.53 333.89 315.44C341.35 321.13 351.87 316.89 361.22 316.17C384.89 314.35 387.73 332.79 400.74 345.86C407.26 352.41 415.46 353.61 423.96 352.19Z" fill="#43AF3E"/>
<path d="M423.96 352.19C377.71 371.73 328.39 381.71 279 382.09V300.61C280.67 302.03 282.58 303.08 284.84 303.58C296.69 306.21 308.52 290.98 319.37 296.43C326.6 300.06 327.46 310.53 333.89 315.44C341.35 321.13 351.87 316.89 361.22 316.17C384.89 314.35 387.73 332.79 400.74 345.86C407.26 352.41 415.46 353.61 423.96 352.19Z" fill="#00A23E"/>
<path d="M463.61 373.71C333.35 446.2 172.03 442.02 44.74 359.36C34.77 336.81 27.96 312.55 24.88 287.14C66.45 282.8 126.36 289.21 183.54 298.53C215.57 303.75 247.4 310.02 279 317.32C301.54 322.51 323.96 328.22 346.24 334.43L463.61 373.71Z" fill="#5DBF1D"/>
<path d="M463.61 373.71C406.24 405.63 342.85 422.69 279 424.71V317.32C301.54 322.51 323.96 328.22 346.24 334.43L463.61 373.71Z" fill="#53AF17"/>
<path d="M533.76 281.29C532.14 297.87 528.93 313.99 524.29 329.49C523.81 331.09 523.32 332.68 522.81 334.26L415.54 412.72C330.5 474.92 220.39 491.55 120.77 457.25C109.7 448.54 99.37 438.94 89.89 428.55C75.43 412.71 62.93 395.05 52.79 375.94C49.92 370.53 47.23 365 44.74 359.36C118.75 372.65 194.79 368.59 258.95 356.55C265.72 355.28 272.4 353.93 279 352.5C348.64 337.49 408.77 314.64 466.23 297.7C488.87 291.02 511.48 285.25 533.76 281.29Z" fill="#6CDC2D"/>
<path d="M400.101 336.53H383.777L384.651 309.174L385.726 275.57H398.152L399.227 309.174L400.101 336.53Z" fill="#EC771B"/>
<path d="M400.101 336.53H392.251V275.57H398.152L399.227 309.174L400.101 336.53Z" fill="#C55732"/>
<path d="M392.251 302.792V275.57H385.726L384.855 302.792H392.251Z" fill="#C55732"/>
<path d="M399.023 302.792L398.152 275.57H392.251V302.792H399.023Z" fill="#A44E3E"/>
<path d="M417.605 286.265C410.584 293.176 401.418 296.632 392.251 296.632C383.086 296.632 373.92 293.176 366.898 286.265C355.545 275.091 353.398 258.286 360.457 244.982C370.275 226.48 378.977 207.423 387.034 188.115L392.251 175.614L397.47 188.115C405.528 207.424 414.229 226.48 424.047 244.982C431.107 258.286 428.96 275.092 417.605 286.265Z" fill="#43AF3E"/>
<path d="M417.605 286.265C410.584 293.176 401.418 296.632 392.251 296.632C387.903 296.632 383.554 293.176 380.222 286.265C374.835 275.091 373.816 258.286 377.166 244.982C381.824 226.48 385.952 207.423 389.776 188.115L392.25 175.614L397.469 188.115C405.527 207.424 414.228 226.48 424.046 244.982C431.107 258.286 428.96 275.092 417.605 286.265Z" fill="#00A23E"/>
<path d="M417.605 286.265C410.584 293.176 401.418 296.632 392.251 296.632V175.614L397.47 188.115C405.528 207.424 414.229 226.48 424.047 244.982C431.107 258.286 428.96 275.092 417.605 286.265Z" fill="#008839"/>
<path d="M474.375 310.621H463.154L463.755 291.819L464.494 268.72H473.035L473.774 291.819L474.375 310.621Z" fill="#EC771B"/>
<path d="M474.375 310.621H468.979V268.72H473.035L473.774 291.819L474.375 310.621Z" fill="#C55732"/>
<path d="M468.979 288.073V268.72H464.494L463.874 288.073H468.979Z" fill="#C55732"/>
<path d="M473.654 288.073L473.035 268.72H468.979V288.073H473.654Z" fill="#A44E3E"/>
<path d="M486.406 276.072C481.58 280.823 475.28 283.198 468.979 283.198C462.68 283.198 456.379 280.823 451.552 276.072C443.748 268.392 442.272 256.84 447.125 247.695C453.874 234.977 459.855 221.878 465.393 208.606L468.979 200.014L472.566 208.606C478.105 221.878 484.086 234.977 490.834 247.695C495.687 256.84 494.211 268.391 486.406 276.072Z" fill="#43AF3E"/>
<path d="M486.406 276.072C481.58 280.823 475.28 283.198 468.979 283.198C465.99 283.198 463.001 280.823 460.711 276.072C457.008 268.392 456.308 256.84 458.611 247.695C461.813 234.977 464.65 221.878 467.279 208.606L468.98 200.014L472.567 208.606C478.106 221.878 484.087 234.977 490.835 247.695C495.687 256.84 494.211 268.391 486.406 276.072Z" fill="#00A23E"/>
<path d="M486.406 276.072C481.58 280.823 475.28 283.198 468.979 283.198V200.014L472.566 208.606C478.105 221.878 484.086 234.977 490.834 247.695C495.687 256.84 494.211 268.391 486.406 276.072Z" fill="#008839"/>
<path d="M533.76 281.29C532.14 297.87 528.93 313.99 524.29 329.49C523.81 331.09 523.32 332.68 522.81 334.26L415.54 412.72C374.53 442.72 327.68 462.12 279 470.32V352.5C348.64 337.49 408.77 314.64 466.23 297.7C488.87 291.02 511.48 285.25 533.76 281.29Z" fill="#5DBF1D"/>
<path d="M522.81 334.26C516.99 352.4 509.21 369.67 499.71 385.79C490.66 401.14 480.05 415.47 468.11 428.55C421.45 479.65 354.37 511.77 279.79 512H279C219.27 512 164.32 491.54 120.77 457.25C145.48 455.67 170.12 451.71 193.87 446C222.95 439 251.16 429.64 279 419.23C322.7 402.88 365.47 383.93 409.16 367.47C445.82 353.65 484 341.49 522.81 334.26Z" fill="#B6E337"/>
<path d="M522.81 334.26C516.99 352.4 509.21 369.67 499.71 385.79C490.66 401.14 480.05 415.47 468.11 428.55C421.45 479.65 354.37 511.77 279.79 512H279V419.23C322.7 402.88 365.47 383.93 409.16 367.47C445.82 353.65 484 341.49 522.81 334.26Z" fill="#6CDC2D"/>
<path d="M229.767 467.77C230.8 463.415 228.108 459.048 223.754 458.014C219.4 456.98 215.032 459.672 213.998 464.026C212.964 468.381 215.656 472.748 220.011 473.782C224.365 474.816 228.733 472.124 229.767 467.77Z" fill="#6CDC2D"/>
<path d="M258.41 481.886C260.648 481.886 262.462 480.072 262.462 477.834C262.462 475.596 260.648 473.782 258.41 473.782C256.172 473.782 254.358 475.596 254.358 477.834C254.358 480.072 256.172 481.886 258.41 481.886Z" fill="#6CDC2D"/>
<path d="M183.305 470.734C183.305 473.813 180.809 476.31 177.729 476.31C174.65 476.31 172.153 473.814 172.153 470.734C172.153 467.655 174.649 465.158 177.729 465.158C180.809 465.158 183.305 467.655 183.305 470.734Z" fill="#6CDC2D"/>
<path d="M265.029 449.589C268.109 449.589 270.605 447.093 270.605 444.013C270.605 440.933 268.109 438.437 265.029 438.437C261.949 438.437 259.453 440.933 259.453 444.013C259.453 447.093 261.949 449.589 265.029 449.589Z" fill="#6CDC2D"/>
<path d="M318.033 493.251C322.547 491.368 324.679 486.183 322.797 481.67C320.914 477.157 315.729 475.024 311.216 476.906C306.702 478.789 304.57 483.974 306.452 488.487C308.335 493.001 313.52 495.134 318.033 493.251Z" fill="#5DBF1D"/>
<path d="M96.7005 394.328C101.315 392.254 103.374 386.831 101.3 382.216C99.2252 377.601 93.8024 375.542 89.1877 377.617C84.5729 379.691 82.5137 385.114 84.5883 389.729C86.6629 394.344 92.0857 396.403 96.7005 394.328Z" fill="#5DBF1D"/>
<path d="M258.337 412.445C262.033 412.445 265.029 409.449 265.029 405.753C265.029 402.057 262.033 399.061 258.337 399.061C254.641 399.061 251.645 402.057 251.645 405.753C251.645 409.449 254.641 412.445 258.337 412.445Z" fill="#5DBF1D"/>
<path d="M211.466 395.413C215.554 392.283 216.33 386.432 213.2 382.345C210.07 378.257 204.219 377.481 200.132 380.611C196.045 383.741 195.268 389.592 198.398 393.679C201.528 397.766 207.379 398.543 211.466 395.413Z" fill="#5DBF1D"/>
<path d="M486.072 338.007C489.768 338.007 492.764 335.011 492.764 331.315C492.764 327.619 489.768 324.623 486.072 324.623C482.376 324.623 479.38 327.619 479.38 331.315C479.38 335.011 482.376 338.007 486.072 338.007Z" fill="#53AF17"/>
<path d="M166.578 415.216C166.578 418.773 163.694 421.657 160.137 421.657C156.58 421.657 153.696 418.773 153.696 415.216C153.696 411.659 156.58 408.775 160.137 408.775C163.694 408.775 166.578 411.658 166.578 415.216Z" fill="#5DBF1D"/>
<path d="M376.522 361.248C376.522 357.697 379.4 354.819 382.951 354.819C386.502 354.819 389.38 357.697 389.38 361.248C389.38 364.799 386.502 367.677 382.951 367.677C379.4 367.677 376.522 364.798 376.522 361.248Z" fill="#53AF17"/>
<path d="M417.531 326.929C417.531 323.378 420.409 320.5 423.96 320.5C427.511 320.5 430.389 323.378 430.389 326.929C430.389 330.48 427.511 333.358 423.96 333.358C420.409 333.358 417.531 330.48 417.531 326.929Z" fill="#53AF17"/>
<path d="M319.856 374.386C324.629 374.386 328.499 370.516 328.499 365.743C328.499 360.97 324.629 357.1 319.856 357.1C315.083 357.1 311.213 360.97 311.213 365.743C311.213 370.516 315.083 374.386 319.856 374.386Z" fill="#53AF17"/>
<path d="M461.705 409.417C466.931 409.417 471.168 405.18 471.168 399.954C471.168 394.728 466.931 390.491 461.705 390.491C456.479 390.491 452.242 394.728 452.242 399.954C452.242 405.18 456.479 409.417 461.705 409.417Z" fill="#5DBF1D"/>
<path d="M360.943 423.408C365.467 423.408 369.135 419.74 369.135 415.216C369.135 410.692 365.467 407.024 360.943 407.024C356.419 407.024 352.751 410.692 352.751 415.216C352.751 419.74 356.419 423.408 360.943 423.408Z" fill="#5DBF1D"/>
<path d="M417.749 444.014C420.455 444.014 422.649 441.82 422.649 439.114C422.649 436.408 420.455 434.214 417.749 434.214C415.043 434.214 412.849 436.408 412.849 439.114C412.849 441.82 415.043 444.014 417.749 444.014Z" fill="#5DBF1D"/>
<path d="M479.38 370.643C482.086 370.643 484.28 368.449 484.28 365.743C484.28 363.037 482.086 360.843 479.38 360.843C476.674 360.843 474.48 363.037 474.48 365.743C474.48 368.449 476.674 370.643 479.38 370.643Z" fill="#5DBF1D"/>
<path d="M374.035 474.786C376.741 474.786 378.935 472.592 378.935 469.886C378.935 467.18 376.741 464.986 374.035 464.986C371.329 464.986 369.135 467.18 369.135 469.886C369.135 472.592 371.329 474.786 374.035 474.786Z" fill="#5DBF1D"/>
<path d="M312.74 439.114C315.446 439.114 317.64 436.92 317.64 434.214C317.64 431.508 315.446 429.314 312.74 429.314C310.034 429.314 307.84 431.508 307.84 434.214C307.84 436.92 310.034 439.114 312.74 439.114Z" fill="#5DBF1D"/>
<path d="M425.132 392.571C425.132 396.649 421.826 399.954 417.749 399.954C413.671 399.954 410.366 396.648 410.366 392.571C410.366 388.493 413.672 385.188 417.749 385.188C421.826 385.188 425.132 388.494 425.132 392.571Z" fill="#5DBF1D"/>
<path d="M196.356 142.867C196.356 142.797 196.361 142.728 196.361 142.658C196.361 129.874 185.997 119.51 173.213 119.51C170.176 119.51 167.278 120.101 164.621 121.164C159.488 111.968 149.666 105.746 138.387 105.746C123.739 105.746 111.548 116.236 108.898 130.112C108.108 129.999 107.301 129.937 106.48 129.937C98.5161 129.937 91.8441 135.45 90.0601 142.867H196.356Z" fill="white"/>
<path d="M173.77 142.867C173.77 142.827 173.773 142.787 173.773 142.747C173.773 135.396 167.814 129.436 160.462 129.436C158.716 129.436 157.049 129.776 155.521 130.387C152.569 125.099 146.922 121.521 140.435 121.521C132.012 121.521 125.002 127.553 123.478 135.532C123.024 135.467 122.56 135.431 122.088 135.431C117.508 135.431 113.672 138.601 112.646 142.866H173.77V142.867Z" fill="#DFF7FD"/>
<path d="M248.255 59.343C248.255 59.299 248.252 59.256 248.252 59.212C248.252 51.17 254.771 44.65 262.814 44.65C264.724 44.65 266.547 45.022 268.219 45.691C271.448 39.906 277.626 35.992 284.722 35.992C293.936 35.992 301.606 42.591 303.272 51.319C303.769 51.248 304.276 51.209 304.793 51.209C309.803 51.209 314 54.677 315.122 59.343H248.255Z" fill="white"/>
<path d="M262.463 59.343C262.463 59.318 262.461 59.293 262.461 59.267C262.461 54.643 266.21 50.894 270.834 50.894C271.933 50.894 272.981 51.108 273.942 51.492C275.799 48.166 279.351 45.915 283.432 45.915C288.73 45.915 293.14 49.71 294.099 54.729C294.385 54.688 294.677 54.666 294.974 54.666C297.855 54.666 300.268 56.66 300.914 59.343H262.463Z" fill="#DFF7FD"/>
<path d="M343.865 157.218C343.865 157.142 343.859 157.067 343.859 156.991C343.859 143.09 355.128 131.821 369.029 131.821C372.331 131.821 375.482 132.463 378.372 133.62C383.953 123.621 394.633 116.855 406.897 116.855C422.824 116.855 436.08 128.261 438.961 143.349C439.82 143.226 440.697 143.159 441.59 143.159C450.249 143.159 457.505 149.154 459.444 157.218H343.865Z" fill="white"/>
<path d="M368.423 157.218C368.423 157.174 368.42 157.131 368.42 157.087C368.42 149.094 374.9 142.614 382.893 142.614C384.792 142.614 386.604 142.983 388.265 143.648C391.475 137.898 397.615 134.008 404.668 134.008C413.826 134.008 421.449 140.567 423.106 149.242C423.6 149.171 424.104 149.133 424.618 149.133C429.597 149.133 433.769 152.58 434.885 157.217H368.423V157.218Z" fill="#DFF7FD"/>
</g>
<defs>
<clipPath id="clip0">
<rect width="560" height="877" fill="white"/>
</clipPath>
</defs>
</svg>
