<svg width="210" height="101" viewBox="0 0 210 101" fill="none" xmlns="http://www.w3.org/2000/svg">
<path d="M24.8 75.8C20.6933 75.8 16.96 75.1067 13.6 73.72C10.2933 72.28 7.65333 70.1733 5.68 67.4C3.70667 64.6267 2.61333 61.32 2.4 57.48L2.32 54.28L2.4 51C2.56 47.16 3.62667 43.8533 5.6 41.08C7.62667 38.3067 10.2933 36.2 13.6 34.76C16.96 33.32 20.6933 32.6 24.8 32.6C30.0267 32.6 34.4 33.56 37.92 35.48C41.44 37.3467 44.0267 39.5333 45.68 42.04C47.3867 44.5467 48.24 46.6267 48.24 48.28C48.24 48.8133 48.0267 49.2933 47.6 49.72C47.1733 50.0933 46.6667 50.28 46.08 50.28H30.48C29.4667 50.28 28.6933 49.7467 28.16 48.68C27.7333 47.8267 27.3067 47.2133 26.88 46.84C26.5067 46.4667 25.9467 46.28 25.2 46.28C24.0267 46.28 23.2 46.7067 22.72 47.56C22.2933 48.4133 22.0533 49.6933 22 51.4L21.92 54.52L22 57.08C22.1067 58.8933 22.3733 60.2 22.8 61C23.2267 61.7467 24.0267 62.12 25.2 62.12C26.0533 62.12 26.6667 61.96 27.04 61.64C27.4133 61.2667 27.7867 60.6267 28.16 59.72C28.5867 58.6533 29.36 58.12 30.48 58.12H46.08C46.6667 58.12 47.1733 58.3333 47.6 58.76C48.0267 59.1333 48.24 59.5867 48.24 60.12C48.24 61.6133 47.44 63.6133 45.84 66.12C44.24 68.6267 41.68 70.8667 38.16 72.84C34.6933 74.8133 30.24 75.8 24.8 75.8ZM56.6869 90.2C56.2069 90.2 55.7802 90.04 55.4069 89.72C55.0869 89.4 54.9269 89 54.9269 88.52C54.9269 88.4667 54.9269 88.36 54.9269 88.2C54.8735 88.04 54.9002 87.88 55.0069 87.72L61.4069 72.36L45.9669 35.88C45.9135 35.72 45.8869 35.5333 45.8869 35.32C45.9935 34.7867 46.2335 34.3333 46.6069 33.96C46.9802 33.5867 47.4069 33.4 47.8869 33.4H61.4069C62.6335 33.4 63.4869 34.04 63.9669 35.32L70.5269 53.56L77.3269 35.32C77.8602 34.04 78.7669 33.4 80.0469 33.4H93.4069C93.8869 33.4 94.3135 33.5867 94.6869 33.96C95.0602 34.28 95.2469 34.6533 95.2469 35.08C95.2469 35.4 95.2202 35.6667 95.1669 35.88L72.6069 88.28C72.0735 89.56 71.1402 90.2 69.8069 90.2H56.6869ZM107.355 75.8C104.368 75.8 101.675 75.24 99.275 74.12C96.9283 73 95.0883 71.48 93.755 69.56C92.475 67.64 91.835 65.48 91.835 63.08C91.835 55.88 97.675 51.2667 109.355 49.24L117.835 47.88V47.8C117.835 46.2533 117.702 45.2133 117.435 44.68C117.168 44.0933 116.502 43.8 115.435 43.8C114.848 43.8 114.342 43.9067 113.915 44.12C113.488 44.3333 113.035 44.6533 112.555 45.08C112.075 45.5067 111.648 45.8267 111.275 46.04C110.955 46.2533 110.502 46.36 109.915 46.36H96.315C95.835 46.36 95.4083 46.2267 95.035 45.96C94.715 45.64 94.555 45.24 94.555 44.76C94.555 43.2133 95.3017 41.48 96.795 39.56C98.3417 37.64 100.688 36.0133 103.835 34.68C107.035 33.2933 110.955 32.6 115.595 32.6C122.742 32.6 128.102 34.0933 131.675 37.08C135.248 40.0667 137.035 44.3333 137.035 49.88V72.84C137.035 73.4267 136.822 73.9333 136.395 74.36C135.968 74.7867 135.462 75 134.875 75H120.875C120.288 75 119.782 74.7867 119.355 74.36C118.928 73.9333 118.715 73.4267 118.715 72.84V70.6C117.542 72.2 115.968 73.48 113.995 74.44C112.022 75.3467 109.808 75.8 107.355 75.8ZM112.875 63.96C114.475 63.96 115.728 63.4533 116.635 62.44C117.595 61.4267 118.075 59.88 118.075 57.8V57.72L113.355 58.76C111.008 59.2933 109.835 60.28 109.835 61.72C109.835 62.36 110.102 62.8933 110.635 63.32C111.168 63.7467 111.915 63.96 112.875 63.96ZM142.801 75C142.214 75 141.707 74.7867 141.281 74.36C140.854 73.9333 140.641 73.4267 140.641 72.84V35.56C140.641 34.9733 140.854 34.4667 141.281 34.04C141.707 33.6133 142.214 33.4 142.801 33.4H156.801C157.387 33.4 157.894 33.6133 158.321 34.04C158.747 34.4667 158.961 34.9733 158.961 35.56V38.2C160.347 36.5467 162.214 35.2133 164.561 34.2C166.961 33.1333 169.521 32.6 172.241 32.6C175.067 32.6 177.654 33.2667 180.001 34.6C182.347 35.88 184.214 37.88 185.601 40.6C187.041 43.32 187.761 46.7067 187.761 50.76V72.84C187.761 73.4267 187.547 73.9333 187.121 74.36C186.694 74.7867 186.187 75 185.601 75H170.321C169.734 75 169.227 74.7867 168.801 74.36C168.374 73.9333 168.161 73.4267 168.161 72.84V51.32C168.161 49.88 167.814 48.7867 167.121 48.04C166.427 47.2933 165.441 46.92 164.161 46.92C162.881 46.92 161.894 47.2933 161.201 48.04C160.507 48.7867 160.161 49.88 160.161 51.32V72.84C160.161 73.4267 159.947 73.9333 159.521 74.36C159.094 74.7867 158.587 75 158.001 75H142.801Z" fill="#4787CD"/>
<path d="M83.64 97C83.5547 97 83.48 96.968 83.416 96.904C83.352 96.84 83.32 96.7653 83.32 96.68C83.32 96.5947 83.3253 96.536 83.336 96.504L87.304 86.152C87.3893 85.9173 87.56 85.8 87.816 85.8H88.904C89.16 85.8 89.3307 85.9173 89.416 86.152L93.368 96.504L93.4 96.68C93.4 96.7653 93.368 96.84 93.304 96.904C93.24 96.968 93.1653 97 93.08 97H92.264C92.1467 97 92.056 96.9733 91.992 96.92C91.928 96.856 91.8853 96.792 91.864 96.728L90.984 94.456H85.736L84.856 96.728C84.8347 96.792 84.7867 96.856 84.712 96.92C84.648 96.9733 84.5627 97 84.456 97H83.64ZM90.52 93.08L88.36 87.4L86.2 93.08H90.52ZM98.9876 97.16C97.5903 97.16 96.5023 96.7813 95.7236 96.024C94.9556 95.256 94.545 94.2107 94.4916 92.888C94.481 92.568 94.4756 92.0667 94.4756 91.384C94.4756 90.6907 94.481 90.1893 94.4916 89.88C94.545 88.568 94.961 87.5333 95.7396 86.776C96.5183 86.0187 97.601 85.64 98.9876 85.64C99.9263 85.64 100.721 85.8107 101.372 86.152C102.033 86.4827 102.529 86.888 102.86 87.368C103.19 87.848 103.366 88.296 103.388 88.712V88.744C103.388 88.8293 103.356 88.8987 103.292 88.952C103.228 89.0053 103.148 89.032 103.052 89.032H102.108C102.001 89.032 101.921 89.016 101.868 88.984C101.825 88.9413 101.782 88.8613 101.74 88.744C101.58 88.264 101.27 87.8533 100.812 87.512C100.364 87.1707 99.7556 87 98.9876 87C98.1023 87 97.409 87.24 96.9076 87.72C96.4063 88.2 96.1343 88.9467 96.0916 89.96C96.081 90.2693 96.0756 90.744 96.0756 91.384C96.0756 92.0133 96.081 92.488 96.0916 92.808C96.1343 93.832 96.4063 94.5893 96.9076 95.08C97.409 95.56 98.1023 95.8 98.9876 95.8C99.8836 95.8 100.598 95.5547 101.132 95.064C101.665 94.5733 101.932 93.8373 101.932 92.856V92.184H99.5316C99.425 92.184 99.3343 92.152 99.2596 92.088C99.1956 92.0133 99.1636 91.9173 99.1636 91.8V91.288C99.1636 91.1813 99.1956 91.0907 99.2596 91.016C99.3343 90.9413 99.425 90.904 99.5316 90.904H103.148C103.254 90.904 103.34 90.9413 103.404 91.016C103.478 91.08 103.516 91.1707 103.516 91.288V92.824C103.516 93.6987 103.334 94.4613 102.972 95.112C102.609 95.7627 102.086 96.2693 101.404 96.632C100.721 96.984 99.9156 97.16 98.9876 97.16ZM106.166 97C106.06 97 105.969 96.968 105.894 96.904C105.83 96.8293 105.798 96.7387 105.798 96.632V86.184C105.798 86.0667 105.83 85.976 105.894 85.912C105.969 85.8373 106.06 85.8 106.166 85.8H110.07C111.297 85.8 112.257 86.088 112.95 86.664C113.644 87.24 113.99 88.072 113.99 89.16C113.99 89.9707 113.788 90.6373 113.382 91.16C112.988 91.6827 112.428 92.0453 111.702 92.248L114.166 96.504C114.198 96.568 114.214 96.6267 114.214 96.68C114.214 96.7653 114.177 96.84 114.102 96.904C114.038 96.968 113.964 97 113.878 97H113.11C112.95 97 112.822 96.9627 112.726 96.888C112.641 96.8133 112.561 96.7067 112.486 96.568L110.166 92.504H107.366V96.632C107.366 96.7387 107.329 96.8293 107.254 96.904C107.18 96.968 107.089 97 106.982 97H106.166ZM110.006 91.144C111.596 91.144 112.39 90.4773 112.39 89.144C112.39 87.8107 111.596 87.144 110.006 87.144H107.366V91.144H110.006ZM120.299 97.16C118.902 97.16 117.819 96.7973 117.051 96.072C116.294 95.336 115.894 94.232 115.851 92.76C115.84 92.44 115.835 91.9867 115.835 91.4C115.835 90.8133 115.84 90.3653 115.851 90.056C115.894 88.616 116.31 87.5227 117.099 86.776C117.888 86.0187 118.955 85.64 120.299 85.64C121.632 85.64 122.694 86.0187 123.483 86.776C124.272 87.5227 124.688 88.616 124.731 90.056C124.752 90.6747 124.763 91.1227 124.763 91.4C124.763 91.6667 124.752 92.12 124.731 92.76C124.688 94.232 124.283 95.336 123.515 96.072C122.758 96.7973 121.686 97.16 120.299 97.16ZM120.299 95.8C121.142 95.8 121.814 95.544 122.315 95.032C122.816 94.52 123.088 93.736 123.131 92.68C123.152 92.04 123.163 91.6133 123.163 91.4C123.163 91.1653 123.152 90.7387 123.131 90.12C123.088 89.064 122.811 88.28 122.299 87.768C121.798 87.256 121.131 87 120.299 87C119.456 87 118.779 87.256 118.267 87.768C117.766 88.28 117.494 89.064 117.451 90.12C117.44 90.4293 117.435 90.856 117.435 91.4C117.435 91.9333 117.44 92.36 117.451 92.68C117.494 93.736 117.766 94.52 118.267 95.032C118.779 95.544 119.456 95.8 120.299 95.8ZM126.14 97C126.055 97 125.98 96.968 125.916 96.904C125.852 96.84 125.82 96.7653 125.82 96.68C125.82 96.5947 125.825 96.536 125.836 96.504L129.804 86.152C129.889 85.9173 130.06 85.8 130.316 85.8H131.404C131.66 85.8 131.831 85.9173 131.916 86.152L135.868 96.504L135.9 96.68C135.9 96.7653 135.868 96.84 135.804 96.904C135.74 96.968 135.665 97 135.58 97H134.764C134.647 97 134.556 96.9733 134.492 96.92C134.428 96.856 134.385 96.792 134.364 96.728L133.484 94.456H128.236L127.356 96.728C127.335 96.792 127.287 96.856 127.212 96.92C127.148 96.9733 127.063 97 126.956 97H126.14ZM133.02 93.08L130.86 87.4L128.7 93.08H133.02ZM137.979 97C137.872 97 137.781 96.968 137.707 96.904C137.643 96.8293 137.611 96.7387 137.611 96.632V86.184C137.611 86.0667 137.643 85.976 137.707 85.912C137.781 85.8373 137.872 85.8 137.979 85.8H138.715C138.907 85.8 139.04 85.8747 139.115 86.024L144.427 94.184V86.184C144.427 86.0667 144.459 85.976 144.523 85.912C144.597 85.8373 144.688 85.8 144.795 85.8H145.563C145.68 85.8 145.771 85.8373 145.835 85.912C145.909 85.976 145.947 86.0667 145.947 86.184V96.616C145.947 96.7227 145.909 96.8133 145.835 96.888C145.771 96.9627 145.685 97 145.579 97H144.811C144.651 97 144.523 96.9253 144.427 96.776L139.131 88.696V96.632C139.131 96.7387 139.093 96.8293 139.019 96.904C138.944 96.968 138.853 97 138.747 97H137.979ZM147.984 97C147.898 97 147.824 96.968 147.76 96.904C147.696 96.84 147.664 96.7653 147.664 96.68C147.664 96.5947 147.669 96.536 147.68 96.504L151.648 86.152C151.733 85.9173 151.904 85.8 152.16 85.8H153.248C153.504 85.8 153.674 85.9173 153.76 86.152L157.712 96.504L157.744 96.68C157.744 96.7653 157.712 96.84 157.648 96.904C157.584 96.968 157.509 97 157.424 97H156.608C156.49 97 156.4 96.9733 156.336 96.92C156.272 96.856 156.229 96.792 156.208 96.728L155.328 94.456H150.08L149.2 96.728C149.178 96.792 149.13 96.856 149.056 96.92C148.992 96.9733 148.906 97 148.8 97H147.984ZM154.864 93.08L152.704 87.4L150.544 93.08H154.864ZM159.823 97C159.716 97 159.625 96.968 159.551 96.904C159.487 96.8293 159.455 96.7387 159.455 96.632V86.168C159.455 86.0613 159.487 85.976 159.551 85.912C159.625 85.8373 159.716 85.8 159.823 85.8H160.671C160.777 85.8 160.863 85.8373 160.927 85.912C161.001 85.976 161.039 86.0613 161.039 86.168V95.608H166.351C166.468 95.608 166.559 95.6453 166.623 95.72C166.697 95.784 166.735 95.8747 166.735 95.992V96.632C166.735 96.7387 166.697 96.8293 166.623 96.904C166.548 96.968 166.457 97 166.351 97H159.823ZM170.127 97C170.02 97 169.93 96.968 169.855 96.904C169.791 96.8293 169.759 96.7387 169.759 96.632V92.856L165.903 86.328C165.903 86.3067 165.898 86.2747 165.887 86.232C165.866 86.1893 165.855 86.152 165.855 86.12C165.855 86.0347 165.887 85.96 165.951 85.896C166.015 85.832 166.09 85.8 166.175 85.8H167.007C167.188 85.8 167.327 85.8907 167.423 86.072L170.543 91.256L173.663 86.072C173.78 85.8907 173.924 85.8 174.095 85.8H174.911C175.007 85.8 175.087 85.832 175.151 85.896C175.215 85.96 175.247 86.0347 175.247 86.12C175.247 86.1733 175.226 86.2427 175.183 86.328L171.343 92.856V96.632C171.343 96.7387 171.306 96.8293 171.231 96.904C171.156 96.968 171.066 97 170.959 97H170.127ZM179.942 97C179.836 97 179.745 96.968 179.67 96.904C179.606 96.8293 179.574 96.7387 179.574 96.632V87.224H176.502C176.396 87.224 176.305 87.192 176.23 87.128C176.166 87.0533 176.134 86.9627 176.134 86.856V86.184C176.134 86.0773 176.166 85.9867 176.23 85.912C176.305 85.8373 176.396 85.8 176.502 85.8H184.214C184.332 85.8 184.422 85.8373 184.486 85.912C184.561 85.976 184.598 86.0667 184.598 86.184V86.856C184.598 86.9627 184.561 87.0533 184.486 87.128C184.412 87.192 184.321 87.224 184.214 87.224H181.158V96.632C181.158 96.7387 181.121 96.8293 181.046 96.904C180.972 96.968 180.881 97 180.774 97H179.942ZM186.76 97C186.653 97 186.563 96.968 186.488 96.904C186.424 96.8293 186.392 96.7387 186.392 96.632V86.168C186.392 86.0613 186.424 85.976 186.488 85.912C186.563 85.8373 186.653 85.8 186.76 85.8H187.608C187.715 85.8 187.8 85.8373 187.864 85.912C187.939 85.976 187.976 86.0613 187.976 86.168V96.632C187.976 96.7387 187.939 96.8293 187.864 96.904C187.8 96.968 187.715 97 187.608 97H186.76ZM194.799 97.16C193.37 97.16 192.282 96.776 191.535 96.008C190.799 95.24 190.404 94.1787 190.351 92.824C190.34 92.536 190.335 92.0667 190.335 91.416C190.335 90.7547 190.34 90.2747 190.351 89.976C190.404 88.632 190.804 87.576 191.551 86.808C192.298 86.0293 193.38 85.64 194.799 85.64C195.748 85.64 196.554 85.8107 197.215 86.152C197.876 86.4827 198.378 86.92 198.719 87.464C199.06 88.008 199.247 88.5893 199.279 89.208V89.24C199.279 89.3253 199.242 89.4 199.167 89.464C199.103 89.5173 199.028 89.544 198.943 89.544H198.063C197.85 89.544 197.716 89.4213 197.663 89.176C197.482 88.376 197.156 87.816 196.687 87.496C196.218 87.1653 195.588 87 194.799 87C192.964 87 192.015 88.0187 191.951 90.056C191.94 90.344 191.935 90.7867 191.935 91.384C191.935 91.9813 191.94 92.4347 191.951 92.744C192.015 94.7813 192.964 95.8 194.799 95.8C195.588 95.8 196.218 95.64 196.687 95.32C197.167 94.9893 197.492 94.424 197.663 93.624C197.695 93.4853 197.743 93.3893 197.807 93.336C197.871 93.2827 197.956 93.256 198.063 93.256H198.943C199.039 93.256 199.119 93.288 199.183 93.352C199.258 93.4053 199.29 93.48 199.279 93.576C199.247 94.2053 199.06 94.792 198.719 95.336C198.378 95.88 197.876 96.3227 197.215 96.664C196.554 96.9947 195.748 97.16 194.799 97.16ZM205.023 97.16C204.138 97.16 203.37 97.0213 202.719 96.744C202.079 96.4667 201.589 96.104 201.247 95.656C200.906 95.1973 200.725 94.7067 200.703 94.184C200.703 94.0987 200.735 94.024 200.799 93.96C200.874 93.8853 200.959 93.848 201.055 93.848H201.871C202.074 93.848 202.213 93.9547 202.287 94.168C202.383 94.616 202.655 95 203.103 95.32C203.562 95.64 204.202 95.8 205.023 95.8C205.909 95.8 206.575 95.6453 207.023 95.336C207.471 95.016 207.695 94.5733 207.695 94.008C207.695 93.6453 207.583 93.352 207.359 93.128C207.146 92.904 206.826 92.7067 206.399 92.536C205.973 92.3653 205.333 92.152 204.479 91.896C203.647 91.6613 202.986 91.4107 202.495 91.144C202.005 90.8773 201.637 90.5467 201.391 90.152C201.146 89.7573 201.023 89.2613 201.023 88.664C201.023 88.088 201.178 87.5707 201.487 87.112C201.807 86.6533 202.261 86.296 202.847 86.04C203.434 85.7733 204.133 85.64 204.943 85.64C205.775 85.64 206.49 85.7893 207.087 86.088C207.685 86.376 208.138 86.744 208.447 87.192C208.757 87.64 208.922 88.088 208.943 88.536C208.943 88.6213 208.911 88.696 208.847 88.76C208.794 88.824 208.714 88.856 208.607 88.856H207.759C207.535 88.856 207.397 88.7547 207.343 88.552C207.279 88.104 207.029 87.736 206.591 87.448C206.154 87.1493 205.605 87 204.943 87C204.218 87 203.647 87.1387 203.231 87.416C202.815 87.6933 202.607 88.104 202.607 88.648C202.607 89.0107 202.703 89.3093 202.895 89.544C203.098 89.7787 203.402 89.9867 203.807 90.168C204.213 90.3387 204.805 90.536 205.583 90.76C206.49 91.0053 207.205 91.2613 207.727 91.528C208.25 91.784 208.639 92.1093 208.895 92.504C209.151 92.888 209.279 93.3787 209.279 93.976C209.279 94.968 208.895 95.7467 208.127 96.312C207.359 96.8773 206.325 97.16 205.023 97.16Z" fill="#4787CD"/>
</svg>
