<svg id="Capa_1" enable-background="new 0 0 512 512" height="512" viewBox="0 0 512 512" width="512" xmlns="http://www.w3.org/2000/svg"><g><path d="m512 256c0 8.54-.42 16.97-1.24 25.29-139.63 126.44-356.02 112.93-478.83-29.91l-29.06-33.8c18.53-123.15 124.81-217.58 253.13-217.58 141.38 0 256 114.62 256 256z" fill="#92eaff"/><path d="m512 256c0 8.53-.42 16.97-1.24 25.29-139.63 126.44-356.02 112.93-478.83-29.91l-29.06-33.8c4.78-31.82 15.43-61.73 30.81-88.58 44.12 77.07 127.16 129 222.32 129s178.2-51.93 222.32-129c21.43 37.43 33.68 80.78 33.68 127z" fill="#63dbfa"/><g><path d="m400.96 352.19c-131.11 55.41-286.91 33.89-399.08-65.05-.53-4.33-.95-8.69-1.25-13.08-.42-5.96-.63-11.99-.63-18.06 0-13.06.98-25.89 2.87-38.42 13.6-4.41 31.02-2.12 41.29 4.16 7.25 4.43 13.72 10.99 22.13 12.16 14.85 2.07 29.2-13.53 43.24-8.3 14.1 5.26 16.28 27.82 30.91 31.35 11.88 2.87 24.52-9.3 35.63-4.21 11.36 5.22 11 24.28 22.72 28.65 11.64 4.33 23.83-10.09 35.72-6.52 10.83 3.25 13.35 18.84 21.49 25.74 1.67 1.42 3.58 2.47 5.84 2.97 11.85 2.63 23.68-12.6 34.53-7.15 7.23 3.63 8.09 14.1 14.52 19.01 7.46 5.69 17.98 1.45 27.33.73 23.67-1.82 26.51 16.62 39.52 29.69 6.52 6.55 14.72 7.75 23.22 6.33z" fill="#43af3e"/><path d="m400.96 352.19c-46.25 19.54-95.57 29.52-144.96 29.9v-81.48c1.67 1.42 3.58 2.47 5.84 2.97 11.85 2.63 23.68-12.6 34.53-7.15 7.23 3.63 8.09 14.1 14.52 19.01 7.46 5.69 17.98 1.45 27.33.73 23.67-1.82 26.51 16.62 39.52 29.69 6.52 6.55 14.72 7.75 23.22 6.33z" fill="#00a23e"/><path d="m440.61 373.71c-130.26 72.49-291.58 68.31-418.87-14.35-9.97-22.55-16.78-46.81-19.86-72.22 41.57-4.34 101.48 2.07 158.66 11.39 32.03 5.22 63.86 11.49 95.46 18.79 22.54 5.19 44.96 10.9 67.24 17.11z" fill="#5dbf1d"/><path d="m440.61 373.71c-57.37 31.92-120.76 48.98-184.61 51v-107.39c22.54 5.19 44.96 10.9 67.24 17.11z" fill="#53af17"/><path d="m510.76 281.29c-1.62 16.58-4.83 32.7-9.47 48.2-.48 1.6-.97 3.19-1.48 4.77l-107.27 78.46c-85.04 62.2-195.15 78.83-294.77 44.53-11.07-8.71-21.4-18.31-30.88-28.7-14.46-15.84-26.96-33.5-37.1-52.61-2.87-5.41-5.56-10.94-8.05-16.58 74.01 13.29 150.05 9.23 214.21-2.81 6.77-1.27 13.45-2.62 20.05-4.05 69.64-15.01 129.77-37.86 187.23-54.8 22.64-6.68 45.25-12.45 67.53-16.41z" fill="#6cdc2d"/><g><path d="m377.101 336.53h-16.324l.874-27.356 1.075-33.604h12.426l1.075 33.604z" fill="#ec771b"/><path d="m377.101 336.53h-7.85v-60.96h5.901l1.075 33.604z" fill="#c55732"/><path d="m369.251 302.792v-27.222h-6.525l-.871 27.222z" fill="#c55732"/><path d="m376.023 302.792-.871-27.222h-5.901v27.222z" fill="#a44e3e"/><g><path d="m394.605 286.265c-7.021 6.911-16.187 10.367-25.354 10.367-9.165 0-18.331-3.456-25.353-10.367-11.353-11.174-13.5-27.979-6.441-41.283 9.818-18.502 18.52-37.559 26.577-56.867l5.217-12.501 5.219 12.501c8.058 19.309 16.759 38.365 26.577 56.867 7.06 13.304 4.913 30.11-6.442 41.283z" fill="#43af3e"/><path d="m394.605 286.265c-7.021 6.911-16.187 10.367-25.354 10.367-4.348 0-8.697-3.456-12.029-10.367-5.387-11.174-6.406-27.979-3.056-41.283 4.658-18.502 8.786-37.559 12.61-56.867l2.474-12.501 5.219 12.501c8.058 19.309 16.759 38.365 26.577 56.867 7.061 13.304 4.914 30.11-6.441 41.283z" fill="#00a23e"/><path d="m394.605 286.265c-7.021 6.911-16.187 10.367-25.354 10.367v-121.018l5.219 12.501c8.058 19.309 16.759 38.365 26.577 56.867 7.06 13.304 4.913 30.11-6.442 41.283z" fill="#008839"/></g></g><g><path d="m451.375 310.621h-11.221l.601-18.802.739-23.099h8.541l.739 23.099z" fill="#ec771b"/><path d="m451.375 310.621h-5.396v-41.901h4.056l.739 23.099z" fill="#c55732"/><path d="m445.979 288.073v-19.353h-4.485l-.62 19.353z" fill="#c55732"/><path d="m450.654 288.073-.619-19.353h-4.056v19.353z" fill="#a44e3e"/><g><path d="m463.406 276.072c-4.826 4.751-11.126 7.126-17.427 7.126-6.299 0-12.6-2.375-17.427-7.126-7.804-7.68-9.28-19.232-4.427-28.377 6.749-12.718 12.73-25.817 18.268-39.089l3.586-8.592 3.587 8.592c5.539 13.272 11.52 26.371 18.268 39.089 4.853 9.145 3.377 20.696-4.428 28.377z" fill="#43af3e"/><path d="m463.406 276.072c-4.826 4.751-11.126 7.126-17.427 7.126-2.989 0-5.978-2.375-8.268-7.126-3.703-7.68-4.403-19.232-2.1-28.377 3.202-12.718 6.039-25.817 8.668-39.089l1.701-8.592 3.587 8.592c5.539 13.272 11.52 26.371 18.268 39.089 4.852 9.145 3.376 20.696-4.429 28.377z" fill="#00a23e"/><path d="m463.406 276.072c-4.826 4.751-11.126 7.126-17.427 7.126v-83.184l3.587 8.592c5.539 13.272 11.52 26.371 18.268 39.089 4.853 9.145 3.377 20.696-4.428 28.377z" fill="#008839"/></g></g><path d="m510.76 281.29c-1.62 16.58-4.83 32.7-9.47 48.2-.48 1.6-.97 3.19-1.48 4.77l-107.27 78.46c-41.01 30-87.86 49.4-136.54 57.6v-117.82c69.64-15.01 129.77-37.86 187.23-54.8 22.64-6.68 45.25-12.45 67.53-16.41z" fill="#5dbf1d"/><path d="m499.81 334.26c-5.82 18.14-13.6 35.41-23.1 51.53-9.05 15.35-19.66 29.68-31.6 42.76-46.66 51.1-113.74 83.22-188.32 83.45h-.79c-59.73 0-114.68-20.46-158.23-54.75 24.71-1.58 49.35-5.54 73.1-11.25 29.08-7 57.29-16.36 85.13-26.77 43.7-16.35 86.47-35.3 130.16-51.76 36.66-13.82 74.84-25.98 113.65-33.21z" fill="#b6e337"/><path d="m499.81 334.26c-5.82 18.14-13.6 35.41-23.1 51.53-9.05 15.35-19.66 29.68-31.6 42.76-46.66 51.1-113.74 83.22-188.32 83.45h-.79v-92.77c43.7-16.35 86.47-35.3 130.16-51.76 36.66-13.82 74.84-25.98 113.65-33.21z" fill="#6cdc2d"/><ellipse cx="198.821" cy="465.679" fill="#6cdc2d" rx="8.103" ry="8.103" transform="matrix(.231 -.973 .973 .231 -300.151 551.779)"/><circle cx="235.41" cy="477.834" fill="#6cdc2d" r="4.052"/><path d="m160.305 470.734c0 3.079-2.496 5.576-5.576 5.576-3.079 0-5.576-2.496-5.576-5.576 0-3.079 2.496-5.576 5.576-5.576s5.576 2.497 5.576 5.576z" fill="#6cdc2d"/><circle cx="242.029" cy="444.013" fill="#6cdc2d" r="5.576"/><ellipse cx="291.512" cy="485.158" fill="#5dbf1d" rx="8.854" ry="8.854" transform="matrix(.923 -.385 .385 .923 -164.227 149.51)"/><ellipse cx="70" cy="385.971" fill="#5dbf1d" rx="9.162" ry="9.162" transform="matrix(.912 -.41 .41 .912 -152.144 62.667)"/><circle cx="235.337" cy="405.753" fill="#5dbf1d" r="6.692"/><ellipse cx="182.682" cy="388.192" fill="#5dbf1d" rx="9.321" ry="9.321" transform="matrix(.794 -.608 .608 .794 -198.271 190.858)"/><circle cx="463.072" cy="331.315" fill="#53af17" r="6.692"/><path d="m143.578 415.216c0 3.557-2.884 6.441-6.441 6.441s-6.441-2.884-6.441-6.441 2.884-6.441 6.441-6.441 6.441 2.883 6.441 6.441z" fill="#5dbf1d"/><path d="m353.522 361.248c0-3.551 2.878-6.429 6.429-6.429s6.429 2.878 6.429 6.429-2.878 6.429-6.429 6.429-6.429-2.879-6.429-6.429z" fill="#53af17"/><path d="m394.531 326.929c0-3.551 2.878-6.429 6.429-6.429s6.429 2.878 6.429 6.429-2.878 6.429-6.429 6.429-6.429-2.878-6.429-6.429z" fill="#53af17"/><circle cx="296.856" cy="365.743" fill="#53af17" r="8.643"/><g fill="#5dbf1d"><circle cx="438.705" cy="399.954" r="9.463"/><circle cx="337.943" cy="415.216" r="8.192"/><circle cx="394.749" cy="439.114" r="4.9"/><circle cx="456.38" cy="365.743" r="4.9"/><circle cx="351.035" cy="469.886" r="4.9"/><circle cx="289.74" cy="434.214" r="4.9"/><path d="m402.132 392.571c0 4.078-3.306 7.383-7.383 7.383-4.078 0-7.383-3.306-7.383-7.383 0-4.078 3.306-7.383 7.383-7.383s7.383 3.306 7.383 7.383z"/></g><g><path d="m173.356 142.867c0-.07.005-.139.005-.209 0-12.784-10.364-23.148-23.148-23.148-3.037 0-5.935.591-8.592 1.654-5.133-9.196-14.955-15.418-26.234-15.418-14.648 0-26.839 10.49-29.489 24.366-.79-.113-1.597-.175-2.418-.175-7.964 0-14.636 5.513-16.42 12.93z" fill="#fff"/><path d="m150.77 142.867c0-.04.003-.08.003-.12 0-7.351-5.959-13.311-13.311-13.311-1.746 0-3.413.34-4.941.951-2.952-5.288-8.599-8.866-15.086-8.866-8.423 0-15.433 6.032-16.957 14.011-.454-.065-.918-.101-1.39-.101-4.58 0-8.416 3.17-9.442 7.435h61.124z" fill="#dff7fd"/></g><g><path d="m225.255 59.343c0-.044-.003-.087-.003-.131 0-8.042 6.519-14.562 14.562-14.562 1.91 0 3.733.372 5.405 1.041 3.229-5.785 9.407-9.699 16.503-9.699 9.214 0 16.884 6.599 18.55 15.327.497-.071 1.004-.11 1.521-.11 5.01 0 9.207 3.468 10.329 8.134z" fill="#fff"/><path d="m239.463 59.343c0-.025-.002-.05-.002-.076 0-4.624 3.749-8.373 8.373-8.373 1.099 0 2.147.214 3.108.598 1.857-3.326 5.409-5.577 9.49-5.577 5.298 0 9.708 3.795 10.667 8.814.286-.041.578-.063.875-.063 2.881 0 5.294 1.994 5.94 4.677z" fill="#dff7fd"/></g><g><path d="m320.865 157.218c0-.076-.006-.151-.006-.227 0-13.901 11.269-25.17 25.17-25.17 3.302 0 6.453.642 9.343 1.799 5.581-9.999 16.261-16.765 28.525-16.765 15.927 0 29.183 11.406 32.064 26.494.859-.123 1.736-.19 2.629-.19 8.659 0 15.915 5.995 17.854 14.059z" fill="#fff"/><path d="m345.423 157.218c0-.044-.003-.087-.003-.131 0-7.993 6.48-14.473 14.473-14.473 1.899 0 3.711.369 5.372 1.034 3.21-5.75 9.35-9.64 16.403-9.64 9.158 0 16.781 6.559 18.438 15.234.494-.071.998-.109 1.512-.109 4.979 0 9.151 3.447 10.267 8.084h-66.462z" fill="#dff7fd"/></g></g></g></svg>